<svg height="114.929" viewBox="0 0 195.163 114.929" width="195.163" xmlns="http://www.w3.org/2000/svg">
    <defs>
        <radialGradient cx="1.195" cy="-.547" gradientTransform="matrix(0 1 -.5 0 .922 -1.742)" gradientUnits="objectBoundingBox" id="radial-gradient" r="2.83">
            <stop offset="0" stop-color="#fff"/>
            <stop offset=".063" stop-color="#fff"/>
            <stop offset=".079" stop-color="#f8f7ff"/>
            <stop offset=".226" stop-color="#f0effa"/>
            <stop offset=".63" stop-color="#dadcec"/>
            <stop offset=".84" stop-color="#c6cae0"/>
            <stop offset="1" stop-color="#c6cae0"/>
        </radialGradient>
        <radialGradient cx=".761" cy=".405" gradientTransform="matrix(.47 -.883 3.44 1.833 -2.203 -.131)" gradientUnits="objectBoundingBox" id="radial-gradient-3" r="1.434">
            <stop offset="0" stop-color="#fff"/>
            <stop offset=".077" stop-color="#fff"/>
            <stop offset=".175" stop-color="#f8f7ff"/>
            <stop offset=".354" stop-color="#f0effa"/>
            <stop offset=".63" stop-color="#dadcec"/>
            <stop offset=".84" stop-color="#c6cae0"/>
            <stop offset="1" stop-color="#c6cae0"/>
        </radialGradient>
        <radialGradient cx=".899" cy=".232" gradientUnits="objectBoundingBox" id="radial-gradient-5" r="1.086">
            <stop offset="0" stop-color="#bbe5ff"/>
            <stop offset=".005" stop-color="#fbb"/>
            <stop offset=".111" stop-color="#ff9b9b"/>
            <stop offset=".175" stop-color="#ff8d8d"/>
            <stop offset=".266" stop-color="#fd8585"/>
            <stop offset=".406" stop-color="#fa6f6f"/>
            <stop offset=".578" stop-color="#f44c4c"/>
            <stop offset=".773" stop-color="#ec1c1c"/>
            <stop offset=".84" stop-color="#ea0a0a"/>
            <stop offset=".895" stop-color="#ef0707"/>
            <stop offset=".986" stop-color="#fc0101"/>
            <stop offset="1" stop-color="#007fff"/>
        </radialGradient>
        <filter filterUnits="userSpaceOnUse" height="90.451" id="Rectangle_4084" width="105.116" x="15.827" y="21.751">
            <feOffset dy="16"/>
            <feGaussianBlur result="blur" stdDeviation="3"/>
            <feFlood flood-color="#c6cae0" flood-opacity=".4"/>
            <feComposite in2="blur" operator="in"/>
            <feComposite in="SourceGraphic"/>
        </filter>
        <filter filterUnits="userSpaceOnUse" height="90.451" id="Rectangle_4085" width="58.673" x="122.129" y="21.751">
            <feOffset dy="16"/>
            <feGaussianBlur result="blur-2" stdDeviation="3"/>
            <feFlood flood-color="#c6cae0" flood-opacity=".4"/>
            <feComposite in2="blur-2" operator="in"/>
            <feComposite in="SourceGraphic"/>
        </filter>
        <filter filterUnits="userSpaceOnUse" height="79.862" id="Ellipse_356" width="79.862" x="128.193" y="-10">
            <feOffset dx="-8" dy="11"/>
            <feGaussianBlur result="blur-3" stdDeviation="8"/>
            <feFlood flood-color="red" flood-opacity=".702"/>
            <feComposite in2="blur-3" operator="in"/>
            <feComposite in="SourceGraphic"/>
        </filter>
        <clipPath id="clip-path">
            <path class="cls-1"
                  d="M-590.31-3460.26a13.681 13.681 0 0 0-.685-4.277 13.638 13.638 0 0 0-.929-2.176 13.7 13.7 0 0 0-12.085-7.246c-.183 0-.365.007-.546.014-.163-.007-.326-.014-.49-.014h-29a10.651 10.651 0 0 0-8.694 4.318 7.414 7.414 0 0 1-6.039 3.1 7.414 7.414 0 0 1-6.038-3.1 10.653 10.653 0 0 0-8.695-4.318h-84.511c-.163 0-.326.007-.489.014-.181-.007-.362-.014-.545-.014a13.694 13.694 0 0 0-12.085 7.246 13.629 13.629 0 0 0-.929 2.176 13.681 13.681 0 0 0-.685 4.277 13.737 13.737 0 0 0 .094 1.578.883.883 0 0 0-.094.392v1.67a.851.851 0 0 0 .224.587 4.514 4.514 0 0 1 1.247 3.118 4.514 4.514 0 0 1-1.247 3.118.852.852 0 0 0-.224.587v1.67a.852.852 0 0 0 .224.587 4.514 4.514 0 0 1 1.247 3.118 4.515 4.515 0 0 1-1.247 3.118.851.851 0 0 0-.224.587v1.67a.851.851 0 0 0 .224.587 4.514 4.514 0 0 1 1.247 3.118 4.513 4.513 0 0 1-1.247 3.118.853.853 0 0 0-.224.588v1.67a.852.852 0 0 0 .224.587 4.514 4.514 0 0 1 1.247 3.118 4.513 4.513 0 0 1-1.247 3.118.852.852 0 0 0-.224.587v1.67a.852.852 0 0 0 .224.587 4.514 4.514 0 0 1 1.247 3.118 4.514 4.514 0 0 1-1.247 3.118.852.852 0 0 0-.224.587v1.67a.851.851 0 0 0 .224.587 4.514 4.514 0 0 1 1.247 3.118 4.514 4.514 0 0 1-1.247 3.118.852.852 0 0 0-.224.587v1.67a.852.852 0 0 0 .224.587 4.514 4.514 0 0 1 1.247 3.118 4.514 4.514 0 0 1-1.247 3.118.852.852 0 0 0-.224.587v1.67a.887.887 0 0 0 .094.392 13.724 13.724 0 0 0-.094 1.578 13.681 13.681 0 0 0 .685 4.276 13.619 13.619 0 0 0 .929 2.176 13.694 13.694 0 0 0 12.085 7.246c.183 0 .364-.007.545-.014.163.007.326.014.489.014h84.511a10.652 10.652 0 0 0 8.695-4.318 7.415 7.415 0 0 1 6.038-3.105 7.415 7.415 0 0 1 6.039 3.105 10.651 10.651 0 0 0 8.694 4.318h29c.163 0 .327-.007.49-.014.181.007.363.014.546.014a13.7 13.7 0 0 0 12.085-7.246 13.628 13.628 0 0 0 .929-2.176 13.681 13.681 0 0 0 .685-4.276 13.835 13.835 0 0 0-.093-1.578.888.888 0 0 0 .093-.392v-1.67a.851.851 0 0 0-.224-.587 4.516 4.516 0 0 1-1.247-3.118 4.516 4.516 0 0 1 1.247-3.118.851.851 0 0 0 .224-.587v-1.67a.851.851 0 0 0-.224-.587 4.516 4.516 0 0 1-1.247-3.118 4.516 4.516 0 0 1 1.247-3.118.851.851 0 0 0 .224-.587v-1.67a.851.851 0 0 0-.224-.587 4.516 4.516 0 0 1-1.247-3.118 4.516 4.516 0 0 1 1.247-3.118.851.851 0 0 0 .224-.587v-1.67a.852.852 0 0 0-.224-.587 4.515 4.515 0 0 1-1.247-3.118 4.516 4.516 0 0 1 1.247-3.118.851.851 0 0 0 .224-.587v-1.67a.852.852 0 0 0-.224-.588 4.515 4.515 0 0 1-1.247-3.118 4.516 4.516 0 0 1 1.247-3.118.85.85 0 0 0 .224-.587v-1.67a.851.851 0 0 0-.224-.587 4.517 4.517 0 0 1-1.247-3.118 4.516 4.516 0 0 1 1.247-3.118.851.851 0 0 0 .224-.587v-1.67a.851.851 0 0 0-.224-.587 4.516 4.516 0 0 1-1.247-3.118 4.516 4.516 0 0 1 1.247-3.118.851.851 0 0 0 .224-.587v-1.67a.885.885 0 0 0-.093-.392 13.848 13.848 0 0 0 .093-1.578z"
                  data-name="Path 6250" id="Path_6250" transform="translate(762.751 3473.959)"/>
        </clipPath>
        <style>
            .cls-1 {
                fill: url(#radial-gradient)
            }

            .cls-2 {
                fill: url(#radial-gradient-3)
            }

            .cls-4 {
                fill: #fff
            }
        </style>
    </defs>
    <g data-name="Group 11636" id="Group_11636" transform="translate(-72.837 -166)">
        <g data-name="Group 11564" id="Group_11564" transform="translate(85 169)">
            <g data-name="Group 11480" id="Group_11480" transform="translate(0 3.188)">
                <g data-name="Group 11423" id="Group_11423">
                    <path class="cls-1"
                          d="M-590.31-3460.26a13.681 13.681 0 0 0-.685-4.277 13.638 13.638 0 0 0-.929-2.176 13.7 13.7 0 0 0-12.085-7.246c-.183 0-.365.007-.546.014-.163-.007-.326-.014-.49-.014h-29a10.651 10.651 0 0 0-8.694 4.318 7.414 7.414 0 0 1-6.039 3.1 7.414 7.414 0 0 1-6.038-3.1 10.653 10.653 0 0 0-8.695-4.318h-84.511c-.163 0-.326.007-.489.014-.181-.007-.362-.014-.545-.014a13.694 13.694 0 0 0-12.085 7.246 13.629 13.629 0 0 0-.929 2.176 13.681 13.681 0 0 0-.685 4.277 13.737 13.737 0 0 0 .094 1.578.883.883 0 0 0-.094.392v1.67a.851.851 0 0 0 .224.587 4.514 4.514 0 0 1 1.247 3.118 4.514 4.514 0 0 1-1.247 3.118.852.852 0 0 0-.224.587v1.67a.852.852 0 0 0 .224.587 4.514 4.514 0 0 1 1.247 3.118 4.515 4.515 0 0 1-1.247 3.118.851.851 0 0 0-.224.587v1.67a.851.851 0 0 0 .224.587 4.514 4.514 0 0 1 1.247 3.118 4.513 4.513 0 0 1-1.247 3.118.853.853 0 0 0-.224.588v1.67a.852.852 0 0 0 .224.587 4.514 4.514 0 0 1 1.247 3.118 4.513 4.513 0 0 1-1.247 3.118.852.852 0 0 0-.224.587v1.67a.852.852 0 0 0 .224.587 4.514 4.514 0 0 1 1.247 3.118 4.514 4.514 0 0 1-1.247 3.118.852.852 0 0 0-.224.587v1.67a.851.851 0 0 0 .224.587 4.514 4.514 0 0 1 1.247 3.118 4.514 4.514 0 0 1-1.247 3.118.852.852 0 0 0-.224.587v1.67a.852.852 0 0 0 .224.587 4.514 4.514 0 0 1 1.247 3.118 4.514 4.514 0 0 1-1.247 3.118.852.852 0 0 0-.224.587v1.67a.887.887 0 0 0 .094.392 13.724 13.724 0 0 0-.094 1.578 13.681 13.681 0 0 0 .685 4.276 13.619 13.619 0 0 0 .929 2.176 13.694 13.694 0 0 0 12.085 7.246c.183 0 .364-.007.545-.014.163.007.326.014.489.014h84.511a10.652 10.652 0 0 0 8.695-4.318 7.415 7.415 0 0 1 6.038-3.105 7.415 7.415 0 0 1 6.039 3.105 10.651 10.651 0 0 0 8.694 4.318h29c.163 0 .327-.007.49-.014.181.007.363.014.546.014a13.7 13.7 0 0 0 12.085-7.246 13.628 13.628 0 0 0 .929-2.176 13.681 13.681 0 0 0 .685-4.276 13.835 13.835 0 0 0-.093-1.578.888.888 0 0 0 .093-.392v-1.67a.851.851 0 0 0-.224-.587 4.516 4.516 0 0 1-1.247-3.118 4.516 4.516 0 0 1 1.247-3.118.851.851 0 0 0 .224-.587v-1.67a.851.851 0 0 0-.224-.587 4.516 4.516 0 0 1-1.247-3.118 4.516 4.516 0 0 1 1.247-3.118.851.851 0 0 0 .224-.587v-1.67a.851.851 0 0 0-.224-.587 4.516 4.516 0 0 1-1.247-3.118 4.516 4.516 0 0 1 1.247-3.118.851.851 0 0 0 .224-.587v-1.67a.852.852 0 0 0-.224-.587 4.515 4.515 0 0 1-1.247-3.118 4.516 4.516 0 0 1 1.247-3.118.851.851 0 0 0 .224-.587v-1.67a.852.852 0 0 0-.224-.588 4.515 4.515 0 0 1-1.247-3.118 4.516 4.516 0 0 1 1.247-3.118.85.85 0 0 0 .224-.587v-1.67a.851.851 0 0 0-.224-.587 4.517 4.517 0 0 1-1.247-3.118 4.516 4.516 0 0 1 1.247-3.118.851.851 0 0 0 .224-.587v-1.67a.851.851 0 0 0-.224-.587 4.516 4.516 0 0 1-1.247-3.118 4.516 4.516 0 0 1 1.247-3.118.851.851 0 0 0 .224-.587v-1.67a.885.885 0 0 0-.093-.392 13.848 13.848 0 0 0 .093-1.578z"
                          data-name="Path 6236" id="Path_6236" transform="translate(762.751 3473.959)"/>
                    <g filter="url(#Rectangle_4084)" transform="translate(-12.16 -6.19)">
                        <rect class="cls-2" data-name="Rectangle 4084" height="65.451" id="Rectangle_4084-2" rx="18" transform="translate(24.83 21.75)" width="87.116"/>
                    </g>
                    <g filter="url(#Rectangle_4085)" transform="translate(-12.16 -6.19)">
                        <rect class="cls-2" data-name="Rectangle 4085" height="65.451" id="Rectangle_4085-2" rx="18" transform="translate(131.13 21.75)" width="40.673"/>
                    </g>
                </g>
                <path d="M-2246.582 182.96c13.544 1.076 27.683 4.2 33.34-2.591 5.826-6.994 1.186-27.626 1.186-38.879-.944 31.251-13.719 42.471-34.526 41.47z" data-name="Path 6237" fill="#fff"
                      id="Path_6237"
                      opacity="0.3" transform="translate(2378.605 -90.949)"/>
                <path class="cls-4" d="M-2222.07 166.177c-9.413.641-18.061 1.221-21.993-2.822-4.049-4.163-2-15.166-2-21.864.655 18.602 9.533 25.281 23.993 24.686z" data-name="Path 6238" id="Path_6238"
                      transform="translate(2246.659 -70.132)"/>
            </g>
            <g clip-path="url(#clip-path)" data-name="Mask Group 331" id="Mask_Group_331" transform="translate(0 3.188)">
                <g filter="url(#Ellipse_356)" transform="translate(-12.16 -6.19)">
                    <circle cx="15.931" cy="15.931" data-name="Ellipse 356" fill="url(#radial-gradient-5)" id="Ellipse_356-2" opacity="0.8" r="15.931" transform="translate(160.19 3)"/>
                </g>
            </g>
            <g data-name="Group 11482" id="Group_11482" transform="translate(148.03)">
                <circle cx="15.931" cy="15.931" data-name="Ellipse 349" fill="url(#radial-gradient-5)" id="Ellipse_349" r="15.931"/>
                <g data-name="Group 11427" id="Group_11427" transform="translate(11.87 11.694)">
                    <path class="cls-4"
                          d="M-2149.629 25.847a4.17 4.17 0 0 1 1.194 2.991 4.169 4.169 0 0 1-1.194 2.991 3.842 3.842 0 0 1-2.877 1.246 3.808 3.808 0 0 1-2.866-1.246 4.188 4.188 0 0 1-1.184-2.991 4.189 4.189 0 0 1 1.184-2.991 3.808 3.808 0 0 1 2.866-1.246 3.841 3.841 0 0 1 2.877 1.246zm-1.87 3.895a1.141 1.141 0 0 0 .426-.9 1.172 1.172 0 0 0-.426-.914 1.476 1.476 0 0 0-1.007-.374 1.465 1.465 0 0 0-1 .385 1.169 1.169 0 0 0-.436.9 1.14 1.14 0 0 0 .426.9 1.5 1.5 0 0 0 1.008.363 1.5 1.5 0 0 0 1.008-.36z"
                          data-name="Path 6226" id="Path_6226" transform="translate(2156.556 -24.601)"/>
                </g>
            </g>
        </g>
        <path d="M0 0H194V106H0z" data-name="Rectangle 4164" fill="none" id="Rectangle_4164" transform="translate(74 166)"/>
    </g>
</svg>
